<?xml version="1.0" standalone="no"?>
<!DOCTYPE svg PUBLIC "-//W3C//DTD SVG 20010904//EN"
 "http://www.w3.org/TR/2001/REC-SVG-20010904/DTD/svg10.dtd">
<svg version="1.0" xmlns="http://www.w3.org/2000/svg"
 width="800.000000pt" height="800.000000pt" viewBox="0 0 800.000000 800.000000"
 preserveAspectRatio="xMidYMid meet">
<metadata>
Created by potrace 1.11, written by Peter Selinger 2001-2013
</metadata>
<g transform="translate(0.000000,800.000000) scale(0.100000,-0.100000)"
fill="#000000" stroke="none">
<path d="M3778 7724 c-2 -1 -147 -5 -323 -9 -176 -4 -351 -8 -390 -10 -140 -6
-371 -17 -420 -20 -27 -2 -86 -6 -130 -9 -81 -6 -171 -14 -235 -21 -19 -2 -64
-7 -100 -10 -36 -3 -72 -8 -80 -10 -8 -2 -44 -7 -80 -10 -36 -4 -68 -9 -72
-11 -4 -3 -26 -7 -50 -10 -133 -16 -434 -95 -538 -141 -201 -89 -305 -157
-426 -281 -177 -181 -282 -390 -529 -1047 -64 -170 -148 -390 -187 -488 -39
-97 -69 -179 -67 -181 2 -3 42 -7 89 -11 47 -3 106 -8 132 -10 35 -3 52 0 64
13 17 16 124 177 124 186 0 9 131 227 174 291 171 250 358 401 651 526 44 18
224 68 285 78 36 6 79 13 95 16 125 21 485 27 665 12 52 -5 101 -9 108 -9 10
-1 11 -41 7 -192 -3 -105 -7 -222 -10 -261 -2 -38 -7 -122 -10 -185 -4 -63 -8
-126 -10 -140 -2 -14 -6 -68 -10 -120 -3 -52 -8 -106 -10 -120 -2 -14 -7 -54
-10 -90 -7 -73 -11 -113 -25 -215 -5 -38 -12 -90 -15 -115 -3 -25 -7 -54 -9
-65 -2 -11 -6 -41 -10 -66 -4 -25 -9 -59 -12 -75 -2 -16 -9 -56 -15 -89 -6
-33 -12 -69 -13 -80 -2 -11 -16 -78 -30 -150 -14 -71 -28 -139 -30 -150 -28
-138 -117 -465 -178 -655 -110 -340 -292 -762 -439 -1018 -27 -47 -49 -86 -49
-87 0 -9 -244 -394 -273 -430 -22 -28 -313 -428 -349 -480 -171 -245 -242
-383 -265 -512 -29 -173 19 -405 119 -571 129 -215 355 -365 612 -405 102 -16
189 -13 308 11 186 38 326 112 458 242 235 230 387 590 514 1220 20 96 38 191
40 210 3 19 14 89 24 155 11 66 23 145 27 175 3 30 8 62 10 70 3 14 13 84 20
150 2 14 6 48 9 75 4 28 9 70 12 95 3 25 9 79 14 120 12 92 17 144 26 235 3
39 7 77 9 85 2 8 6 56 10 105 4 50 9 97 10 105 2 8 6 47 9 85 4 39 9 88 11
110 4 36 10 106 20 220 2 22 6 72 10 110 10 111 13 145 20 230 3 44 8 100 10
125 3 25 7 72 10 105 5 58 9 99 20 230 3 33 7 87 10 120 2 33 7 87 10 120 2
33 7 92 10 130 3 39 8 86 10 105 2 19 7 71 10 115 3 44 8 96 9 115 5 45 16
178 22 255 2 33 7 83 9 110 3 28 8 79 10 115 3 36 7 83 10 105 2 22 7 76 10
120 4 44 8 96 10 115 2 19 6 67 10 105 3 39 8 88 10 110 3 22 8 76 11 120 3
44 8 91 9 105 2 14 3 30 4 35 1 14 1683 16 1692 2 4 -5 5 -23 4 -41 -2 -17 -6
-76 -10 -131 -13 -202 -15 -231 -19 -285 -3 -30 -8 -95 -11 -145 -3 -49 -7
-103 -10 -120 -2 -16 -7 -70 -10 -120 -4 -49 -8 -101 -10 -115 -2 -14 -7 -65
-10 -115 -4 -49 -8 -101 -11 -115 -2 -14 -6 -55 -9 -90 -3 -36 -7 -85 -10
-110 -2 -25 -7 -72 -10 -105 -17 -183 -26 -267 -30 -305 -2 -19 -7 -64 -10
-100 -3 -36 -8 -85 -10 -110 -3 -25 -7 -72 -10 -105 -3 -33 -7 -78 -10 -100
-2 -22 -7 -71 -10 -110 -3 -38 -8 -86 -11 -105 -2 -19 -6 -57 -8 -85 -13 -140
-19 -203 -21 -230 -2 -16 -6 -64 -10 -105 -9 -105 -13 -145 -20 -225 -4 -38
-8 -90 -10 -115 -7 -107 -16 -217 -20 -245 -2 -16 -6 -82 -10 -145 -3 -63 -8
-126 -10 -140 -2 -14 -7 -83 -10 -155 -4 -71 -8 -155 -10 -185 -24 -392 -23
-790 1 -925 40 -227 81 -362 160 -522 95 -192 207 -332 385 -478 179 -147 474
-257 763 -283 136 -13 366 -6 448 13 13 2 35 7 49 9 14 2 59 14 100 25 278 78
496 222 724 476 37 41 175 231 175 241 0 4 6 15 14 23 12 14 76 128 112 201
104 208 226 593 259 815 4 22 8 47 10 55 4 13 11 80 20 180 7 67 8 148 2 156
-5 9 -273 11 -282 3 -2 -3 -6 -36 -10 -73 -15 -181 -76 -380 -159 -519 -46
-78 -147 -187 -219 -236 -129 -88 -306 -141 -492 -145 -71 -2 -226 16 -280 33
-253 77 -427 260 -525 552 -30 89 -67 252 -80 349 -6 47 -13 96 -15 110 -18
102 -23 527 -11 800 9 178 9 191 21 350 4 58 9 121 10 140 2 31 6 70 20 220 2
19 6 69 10 110 3 41 8 91 11 110 2 19 6 67 9 105 3 39 7 86 10 105 2 19 7 64
10 100 3 36 8 81 10 100 4 33 8 79 20 210 3 30 7 73 10 95 2 22 7 72 10 110 3
39 7 88 10 110 5 42 12 127 20 230 2 33 7 87 10 120 19 231 35 545 40 765 2
80 4 159 4 175 l1 31 428 -3 c235 -2 649 -4 920 -6 l492 -3 0 35 c0 20 0 146
-1 281 -3 589 -6 851 -11 856 -10 9 -4061 28 -4070 18z"/>
</g>
</svg>
